<svg width="89" height="159" fill="none" xmlns="http://www.w3.org/2000/svg"><path d="M27.6 82.23c-2.737 0-4.966-2.2-4.966-4.9 0-2.704 2.229-4.899 4.967-4.899 2.74 0 4.968 2.195 4.968 4.898 0 2.7-2.229 4.9-4.968 4.9zm0-17.109c-6.822 0-12.374 5.475-12.374 12.208 0 6.733 5.552 12.209 12.375 12.209 6.825 0 12.375-5.476 12.375-12.209s-5.551-12.208-12.375-12.208z" stroke="#fff" stroke-width="4" stroke-miterlimit="10"/><path d="M9.477 28.11c.353-.05-.025-.522.116-.572C28.2 20.545 46.668 21.54 58.69 23.076c13.695 1.743 22.94 5.459 23.148 5.542 1.886.78 4.078-.097 4.87-1.955a3.63 3.63 0 00-1.973-4.783c-.405-.167-10.058-4.116-24.758-6.022-12.34-1.597-30.683-1.962-49.8 4.561l-.772.327-.045-.973.047-4.43c18.7-7.52 36.741-6.7 48.959-5.423 13.894 1.45 23.436 4.981 23.529 5.015 1.911.727 4.094-.212 4.83-2.095a3.626 3.626 0 00-2.1-4.723c-.413-.157-10.27-3.866-25.067-5.441-13.673-1.454-34.486-1.27-55.197 7.876C3.03 11.142 2 12.446 2 13.887V42.79c0 .876.496 1.722 1.075 2.386.57.654 14.346 15.967 40.295 15.967 2.047 0 3.75-1.637 3.75-3.656a3.66 3.66 0 00-3.683-3.654c-9.392 0-18.223-2.249-25.917-6.681a50.268 50.268 0 01-8.112-5.842v-.313c19.053-7.125 37.032-6.628 49.136-4.884 13.768 1.982 23.086 5.962 23.179 6.004.49.212 1.043.317 1.544.317 1.42 0 2.797-.81 3.41-2.172a3.63 3.63 0 00-1.867-4.825c-.404-.176-10.238-4.371-24.947-6.52-12.48-1.828-31.05-2.418-50.455 4.295l.07-2.336V28.11v0z" stroke="#fff" stroke-width="4" stroke-miterlimit="10" stroke-linejoin="round"/><path d="M5.776 65.234c-2.048 0-3.706 1.634-3.706 3.654v84.234c0 2.016 1.658 3.653 3.706 3.653 2.045 0 3.702-1.637 3.702-3.653V68.888c0-2.02-1.657-3.654-3.702-3.654z" stroke="#fff" stroke-width="4" stroke-miterlimit="10"/></svg>