<svg xmlns="http://www.w3.org/2000/svg" xmlns:xlink="http://www.w3.org/1999/xlink" width="603.5" height="293.5"><defs><path id="a" d="M0 0h602.785v291.682H0z"/></defs><clipPath id="b"><use xlink:href="#a" overflow="visible"/></clipPath><path clip-path="url(#b)" fill="#1FD3B4" d="M50.683 150.894c-5.022 0-9.11-4.035-9.11-8.989 0-4.958 4.087-8.985 9.11-8.985 5.025 0 9.113 4.027 9.113 8.985-.001 4.953-4.088 8.989-9.113 8.989m0-31.383c-12.516 0-22.699 10.043-22.699 22.395 0 12.351 10.183 22.395 22.699 22.395 12.519 0 22.701-10.044 22.701-22.395 0-12.352-10.183-22.395-22.701-22.395"/><defs><path id="c" d="M0 0h602.785v291.682H0z"/></defs><clipPath id="d"><use xlink:href="#c" overflow="visible"/></clipPath><path clip-path="url(#d)" fill="none" stroke="#FFF" stroke-width="4" stroke-miterlimit="10" d="M50.683 150.894c-5.022 0-9.11-4.035-9.11-8.989 0-4.958 4.087-8.985 9.11-8.985 5.025 0 9.113 4.027 9.113 8.985-.001 4.953-4.088 8.989-9.113 8.989zm0-31.383c-12.516 0-22.699 10.043-22.699 22.395 0 12.351 10.183 22.395 22.699 22.395 12.519 0 22.701-10.044 22.701-22.395 0-12.352-10.183-22.395-22.701-22.395z"/><defs><path id="e" d="M0 0h602.785v291.682H0z"/></defs><clipPath id="f"><use xlink:href="#e" overflow="visible"/></clipPath><path clip-path="url(#f)" fill="#1FD3B4" d="M17.438 51.621c.647-.094-.046-.959.212-1.051 34.134-12.827 68.008-11.002 90.064-8.185 25.12 3.198 42.081 10.014 42.461 10.167 3.46 1.432 7.48-.178 8.933-3.587 1.452-3.417-.157-7.343-3.619-8.774-.743-.305-18.45-7.549-45.414-11.046-22.638-2.93-56.285-3.599-91.351 8.367l-1.417.6-.082-1.785.085-8.127c34.303-13.794 67.397-12.289 89.808-9.948 25.488 2.66 42.99 9.138 43.161 9.2 3.506 1.334 7.511-.389 8.862-3.842a6.651 6.651 0 00-3.855-8.665c-.756-.288-18.837-7.091-45.981-9.981-25.08-2.667-63.259-2.33-101.25 14.448-2.446 1.083-4.333 3.475-4.333 6.118v53.016c0 1.607.909 3.159 1.972 4.376 1.046 1.2 26.315 29.289 73.916 29.289 3.755 0 6.877-3.002 6.877-6.706 0-3.703-3.002-6.702-6.755-6.702-17.229 0-33.427-4.125-47.541-12.256-7.284-4.202-12.289-8.451-14.881-10.715v-.574c34.95-13.071 67.93-12.158 90.133-8.96 25.256 3.635 42.349 10.937 42.519 11.013.898.39 1.914.582 2.832.582 2.606 0 5.131-1.487 6.254-3.984a6.659 6.659 0 00-3.424-8.851c-.741-.323-18.78-8.018-45.761-11.961-22.894-3.352-56.955-4.434-92.552 7.88l.127-4.286v-5.07z"/><defs><path id="g" d="M0 0h602.785v291.682H0z"/></defs><clipPath id="h"><use xlink:href="#g" overflow="visible"/></clipPath><path clip-path="url(#h)" fill="none" stroke="#FFF" stroke-width="4" stroke-linejoin="round" stroke-miterlimit="10" d="M17.438 51.621c.647-.094-.046-.959.212-1.051 34.134-12.827 68.008-11.002 90.064-8.185 25.12 3.198 42.081 10.014 42.461 10.167 3.46 1.432 7.48-.178 8.933-3.587 1.452-3.417-.157-7.343-3.619-8.774-.743-.305-18.45-7.549-45.414-11.046-22.638-2.93-56.285-3.599-91.351 8.367l-1.417.6-.082-1.785.085-8.127c34.303-13.794 67.397-12.289 89.808-9.948 25.488 2.66 42.99 9.138 43.161 9.2 3.506 1.334 7.511-.389 8.862-3.842a6.651 6.651 0 00-3.855-8.665c-.756-.288-18.837-7.091-45.981-9.981-25.08-2.667-63.259-2.33-101.25 14.448-2.446 1.083-4.333 3.475-4.333 6.118v53.016c0 1.607.909 3.159 1.972 4.376 1.046 1.2 26.315 29.289 73.916 29.289 3.755 0 6.877-3.002 6.877-6.706 0-3.703-3.002-6.702-6.755-6.702-17.229 0-33.427-4.125-47.541-12.256-7.284-4.202-12.289-8.451-14.881-10.715v-.574c34.95-13.071 67.93-12.158 90.133-8.96 25.256 3.635 42.349 10.937 42.519 11.013.898.39 1.914.582 2.832.582 2.606 0 5.131-1.487 6.254-3.984a6.659 6.659 0 00-3.424-8.851c-.741-.323-18.78-8.018-45.761-11.961-22.894-3.352-56.955-4.434-92.552 7.88l.127-4.286v-5.07h0z"/><defs><path id="i" d="M0 0h602.785v291.682H0z"/></defs><clipPath id="j"><use xlink:href="#i" overflow="visible"/></clipPath><path clip-path="url(#j)" fill="#1FD3B4" d="M10.648 119.718c-3.757 0-6.797 2.998-6.797 6.703v154.515c0 3.698 3.04 6.7 6.797 6.7 3.751 0 6.792-3.002 6.792-6.7V126.421c-.001-3.705-3.041-6.703-6.792-6.703"/><defs><path id="k" d="M0 0h602.785v291.682H0z"/></defs><clipPath id="l"><use xlink:href="#k" overflow="visible"/></clipPath><path clip-path="url(#l)" fill="none" stroke="#FFF" stroke-width="4" stroke-miterlimit="10" d="M10.648 119.718c-3.757 0-6.797 2.998-6.797 6.703v154.515c0 3.698 3.04 6.7 6.797 6.7 3.751 0 6.792-3.002 6.792-6.7V126.421c-.001-3.705-3.041-6.703-6.792-6.703z"/><defs><path id="m" d="M0 0h602.785v291.682H0z"/></defs><clipPath id="n"><use xlink:href="#m" overflow="visible"/></clipPath><path clip-path="url(#n)" fill="#1FD3B4" d="M200.277 9.897c-3.751 0-6.797 3.002-6.797 6.703v264.335c0 3.698 3.046 6.705 6.797 6.705s6.797-3.007 6.797-6.705V16.6c0-3.701-3.046-6.703-6.797-6.703"/><defs><path id="o" d="M0 0h602.785v291.682H0z"/></defs><clipPath id="p"><use xlink:href="#o" overflow="visible"/></clipPath><path clip-path="url(#p)" fill="none" stroke="#FFF" stroke-width="4" stroke-miterlimit="10" d="M200.277 9.897c-3.751 0-6.797 3.002-6.797 6.703v264.335c0 3.698 3.046 6.705 6.797 6.705s6.797-3.007 6.797-6.705V16.6c0-3.701-3.046-6.703-6.797-6.703h0z"/><defs><path id="q" d="M0 0h602.785v291.682H0z"/></defs><clipPath id="r"><use xlink:href="#q" overflow="visible"/></clipPath><path clip-path="url(#r)" fill="#1FD3B4" d="M343.236 274.162c-45.305 0-82.159-36.357-82.159-81.052 0-44.692 36.854-81.047 82.159-81.047 45.304 0 82.146 36.354 82.146 81.047.001 44.695-36.842 81.052-82.146 81.052m0-175.511c-52.795 0-95.751 42.374-95.751 94.459 0 52.083 42.956 94.457 95.751 94.457 52.799 0 95.742-42.373 95.742-94.457.001-52.086-42.943-94.459-95.742-94.459"/><defs><path id="s" d="M0 0h602.785v291.682H0z"/></defs><clipPath id="t"><use xlink:href="#s" overflow="visible"/></clipPath><path clip-path="url(#t)" fill="none" stroke="#FFF" stroke-width="4" stroke-miterlimit="10" d="M343.236 274.162c-45.305 0-82.159-36.357-82.159-81.052 0-44.692 36.854-81.047 82.159-81.047 45.304 0 82.146 36.354 82.146 81.047.001 44.695-36.842 81.052-82.146 81.052zm0-175.511c-52.795 0-95.751 42.374-95.751 94.459 0 52.083 42.956 94.457 95.751 94.457 52.799 0 95.742-42.373 95.742-94.457.001-52.086-42.943-94.459-95.742-94.459z"/><defs><path id="u" d="M0 0h602.785v291.682H0z"/></defs><clipPath id="v"><use xlink:href="#u" overflow="visible"/></clipPath><path clip-path="url(#v)" fill="#1FD3B4" d="M595.485 120.31c-6.387-39.807-18.999-64.567-19.528-65.603-1.709-3.297-5.802-4.612-9.139-2.933-3.345 1.679-4.679 5.717-2.978 9.014.12.237 12.173 23.881 18.229 61.62 5.591 34.923 6.985 92.323-18.396 152.146-.055.129-37.855-.008-37.855-.008 9.566-24.9 15.651-51.201 18.102-77.718 2.203-23.852 1.49-48.339-2.122-72.463-6.165-41.159-18.516-67.34-19.039-68.431-1.613-3.348-5.662-4.816-9.051-3.235-3.395 1.584-4.841 5.561-3.241 8.909.123.247 12.013 25.679 17.886 64.888 5.301 35.41 6.515 89.31-17.123 148.05h-37.29a290.21 290.21 0 0018.04-77.383c2.166-23.681 1.401-47.925-2.272-71.739-6.276-40.648-18.759-66.32-19.282-67.389-1.646-3.33-5.714-4.75-9.091-3.133-3.376 1.625-4.775 5.619-3.129 8.949.115.244 12.089 24.796 18.061 63.44 5.521 35.741 6.769 90.899-18.624 150.737-.876 2.068-.649 4.755.614 6.623 1.261 1.863 3.384 3.307 5.655 3.307h103.645c3.994 0 8.698-11.48 8.698-11.48 11.696-27.625 18.978-56.511 21.642-85.688 2.143-23.398 1.33-47.166-2.412-70.48"/><defs><path id="w" d="M0 0h602.785v291.682H0z"/></defs><clipPath id="x"><use xlink:href="#w" overflow="visible"/></clipPath><path clip-path="url(#x)" fill="none" stroke="#FFF" stroke-width="4" stroke-miterlimit="10" d="M595.485 120.31c-6.387-39.807-18.999-64.567-19.528-65.603-1.709-3.297-5.802-4.612-9.139-2.933-3.345 1.679-4.679 5.717-2.978 9.014.12.237 12.173 23.881 18.229 61.62 5.591 34.923 6.985 92.323-18.396 152.146-.055.129-37.855-.008-37.855-.008 9.566-24.9 15.651-51.201 18.102-77.718 2.203-23.852 1.49-48.339-2.122-72.463-6.165-41.159-18.516-67.34-19.039-68.431-1.613-3.348-5.662-4.816-9.051-3.235-3.395 1.584-4.841 5.561-3.241 8.909.123.247 12.013 25.679 17.886 64.888 5.301 35.41 6.515 89.31-17.123 148.05h-37.29a290.21 290.21 0 0018.04-77.383c2.166-23.681 1.401-47.925-2.272-71.739-6.276-40.648-18.759-66.32-19.282-67.389-1.646-3.33-5.714-4.75-9.091-3.133-3.376 1.625-4.775 5.619-3.129 8.949.115.244 12.089 24.796 18.061 63.44 5.521 35.741 6.769 90.899-18.624 150.737-.876 2.068-.649 4.755.614 6.623 1.261 1.863 3.384 3.307 5.655 3.307h103.645c3.994 0 8.698-11.48 8.698-11.48 11.696-27.625 18.978-56.511 21.642-85.688 2.143-23.398 1.33-47.166-2.412-70.48z"/></svg>