<svg xmlns="http://www.w3.org/2000/svg" xmlns:xlink="http://www.w3.org/1999/xlink" width="672" height="432" viewBox="-44.56 -25.659 672 432" overflow="visible"><defs><path id="a" d="M0 0h602.785v291.682H0z"/></defs><clipPath id="b"><use xlink:href="#a" overflow="visible"/></clipPath><path clip-path="url(#b)" fill="#1FD3B4" d="M50.683 150.894c-5.022 0-9.11-4.035-9.11-8.989 0-4.958 4.087-8.985 9.11-8.985 5.025 0 9.113 4.027 9.113 8.985-.001 4.953-4.088 8.989-9.113 8.989m0-31.383c-12.516 0-22.699 10.043-22.699 22.394S38.167 164.3 50.683 164.3c12.519 0 22.701-10.044 22.701-22.395s-10.183-22.394-22.701-22.394"/><path clip-path="url(#b)" fill="none" stroke="#FFF" stroke-width="4" stroke-miterlimit="10" d="M50.683 150.894c-5.022 0-9.11-4.035-9.11-8.989 0-4.958 4.087-8.985 9.11-8.985 5.025 0 9.113 4.027 9.113 8.985-.001 4.953-4.088 8.989-9.113 8.989zm0-31.383c-12.516 0-22.699 10.043-22.699 22.394S38.167 164.3 50.683 164.3c12.519 0 22.701-10.044 22.701-22.395s-10.183-22.394-22.701-22.394z"/><path clip-path="url(#b)" fill="#1FD3B4" d="M17.438 51.621c.647-.094-.046-.959.212-1.051 34.134-12.827 68.008-11.002 90.064-8.185 25.12 3.198 42.081 10.014 42.461 10.167 3.46 1.432 7.48-.178 8.933-3.587 1.452-3.417-.157-7.343-3.619-8.774-.743-.305-18.45-7.549-45.414-11.046-22.638-2.93-56.285-3.599-91.351 8.367l-1.417.6-.082-1.785.085-8.127c34.303-13.794 67.397-12.289 89.808-9.948 25.488 2.66 42.99 9.138 43.161 9.2 3.506 1.334 7.511-.389 8.862-3.842a6.651 6.651 0 00-3.855-8.665c-.756-.288-18.837-7.091-45.981-9.981-25.08-2.667-63.259-2.33-101.25 14.448-2.446 1.083-4.333 3.475-4.333 6.118v53.016c0 1.607.909 3.159 1.972 4.376 1.046 1.2 26.315 29.289 73.916 29.289 3.755 0 6.877-3.002 6.877-6.706 0-3.703-3.002-6.702-6.755-6.702-17.229 0-33.427-4.125-47.541-12.256-7.284-4.202-12.289-8.451-14.881-10.715v-.574c34.95-13.071 67.93-12.158 90.133-8.96 25.256 3.635 42.349 10.937 42.519 11.013.898.39 1.914.582 2.832.582 2.606 0 5.131-1.487 6.254-3.984a6.659 6.659 0 00-3.424-8.851c-.741-.323-18.78-8.018-45.761-11.961-22.894-3.352-56.955-4.434-92.552 7.88l.127-4.286v-5.07z"/><path clip-path="url(#b)" fill="none" stroke="#FFF" stroke-width="4" stroke-linejoin="round" stroke-miterlimit="10" d="M17.438 51.621c.647-.094-.046-.959.212-1.051 34.134-12.827 68.008-11.002 90.064-8.185 25.12 3.198 42.081 10.014 42.461 10.167 3.46 1.432 7.48-.178 8.933-3.587 1.452-3.417-.157-7.343-3.619-8.774-.743-.305-18.45-7.549-45.414-11.046-22.638-2.93-56.285-3.599-91.351 8.367l-1.417.6-.082-1.785.085-8.127c34.303-13.794 67.397-12.289 89.808-9.948 25.488 2.66 42.99 9.138 43.161 9.2 3.506 1.334 7.511-.389 8.862-3.842a6.651 6.651 0 00-3.855-8.665c-.756-.288-18.837-7.091-45.981-9.981-25.08-2.667-63.259-2.33-101.25 14.448-2.446 1.083-4.333 3.475-4.333 6.118v53.016c0 1.607.909 3.159 1.972 4.376 1.046 1.2 26.315 29.289 73.916 29.289 3.755 0 6.877-3.002 6.877-6.706 0-3.703-3.002-6.702-6.755-6.702-17.229 0-33.427-4.125-47.541-12.256-7.284-4.202-12.289-8.451-14.881-10.715v-.574c34.95-13.071 67.93-12.158 90.133-8.96 25.256 3.635 42.349 10.937 42.519 11.013.898.39 1.914.582 2.832.582 2.606 0 5.131-1.487 6.254-3.984a6.659 6.659 0 00-3.424-8.851c-.741-.323-18.78-8.018-45.761-11.961-22.894-3.352-56.955-4.434-92.552 7.88l.127-4.286v-5.07z"/><path clip-path="url(#b)" fill="#1FD3B4" d="M10.648 119.718c-3.757 0-6.797 2.998-6.797 6.703v154.514c0 3.699 3.04 6.701 6.797 6.701 3.751 0 6.792-3.002 6.792-6.701V126.421c-.001-3.705-3.041-6.703-6.792-6.703"/><path clip-path="url(#b)" fill="none" stroke="#FFF" stroke-width="4" stroke-miterlimit="10" d="M10.648 119.718c-3.757 0-6.797 2.998-6.797 6.703v154.514c0 3.699 3.04 6.701 6.797 6.701 3.751 0 6.792-3.002 6.792-6.701V126.421c-.001-3.705-3.041-6.703-6.792-6.703z"/><path clip-path="url(#b)" fill="#1FD3B4" d="M200.277 9.897c-3.751 0-6.797 3.002-6.797 6.703v264.335c0 3.699 3.046 6.705 6.797 6.705s6.797-3.006 6.797-6.705V16.6c0-3.701-3.046-6.703-6.797-6.703"/><path clip-path="url(#b)" fill="none" stroke="#FFF" stroke-width="4" stroke-miterlimit="10" d="M200.277 9.897c-3.751 0-6.797 3.002-6.797 6.703v264.335c0 3.699 3.046 6.705 6.797 6.705s6.797-3.006 6.797-6.705V16.6c0-3.701-3.046-6.703-6.797-6.703z"/><path clip-path="url(#b)" fill="#1FD3B4" d="M343.237 274.162c-45.306 0-82.16-36.358-82.16-81.052 0-44.692 36.854-81.047 82.16-81.047 45.303 0 82.146 36.354 82.146 81.047 0 44.694-36.843 81.052-82.146 81.052m0-175.511c-52.796 0-95.752 42.374-95.752 94.459 0 52.083 42.956 94.457 95.752 94.457 52.798 0 95.742-42.374 95.742-94.457 0-52.086-42.944-94.459-95.742-94.459"/><path clip-path="url(#b)" fill="none" stroke="#FFF" stroke-width="4" stroke-miterlimit="10" d="M343.237 274.162c-45.306 0-82.16-36.358-82.16-81.052 0-44.692 36.854-81.047 82.16-81.047 45.303 0 82.146 36.354 82.146 81.047 0 44.694-36.843 81.052-82.146 81.052zm0-175.511c-52.796 0-95.752 42.374-95.752 94.459 0 52.083 42.956 94.457 95.752 94.457 52.798 0 95.742-42.374 95.742-94.457 0-52.086-42.944-94.459-95.742-94.459z"/><path clip-path="url(#b)" fill="#1FD3B4" d="M595.485 120.31c-6.386-39.807-18.999-64.567-19.528-65.603-1.709-3.297-5.802-4.612-9.139-2.933-3.344 1.679-4.678 5.717-2.977 9.014.12.237 12.173 23.881 18.228 61.62 5.591 34.923 6.986 92.323-18.396 152.147-.055.128-37.856-.008-37.856-.008 9.567-24.9 15.652-51.202 18.102-77.718 2.203-23.852 1.49-48.339-2.122-72.463-6.165-41.159-18.516-67.34-19.039-68.431-1.613-3.348-5.662-4.816-9.051-3.235-3.395 1.584-4.841 5.561-3.241 8.909.123.247 12.013 25.679 17.886 64.888 5.3 35.41 6.514 89.31-17.123 148.05H473.94a290.181 290.181 0 0018.04-77.383c2.166-23.681 1.402-47.925-2.272-71.739-6.276-40.648-18.759-66.32-19.282-67.389-1.647-3.33-5.714-4.75-9.091-3.133-3.376 1.625-4.775 5.619-3.129 8.949.115.244 12.089 24.796 18.061 63.44 5.521 35.741 6.768 90.899-18.624 150.737-.876 2.068-.65 4.755.614 6.623 1.261 1.864 3.384 3.307 5.655 3.307h103.645c3.994 0 8.698-11.481 8.698-11.481 11.696-27.625 18.977-56.51 21.641-85.687 2.144-23.399 1.331-47.167-2.411-70.481"/><path clip-path="url(#b)" fill="none" stroke="#FFF" stroke-width="4" stroke-miterlimit="10" d="M595.485 120.31c-6.386-39.807-18.999-64.567-19.528-65.603-1.709-3.297-5.802-4.612-9.139-2.933-3.344 1.679-4.678 5.717-2.977 9.014.12.237 12.173 23.881 18.228 61.62 5.591 34.923 6.986 92.323-18.396 152.147-.055.128-37.856-.008-37.856-.008 9.567-24.9 15.652-51.202 18.102-77.718 2.203-23.852 1.49-48.339-2.122-72.463-6.165-41.159-18.516-67.34-19.039-68.431-1.613-3.348-5.662-4.816-9.051-3.235-3.395 1.584-4.841 5.561-3.241 8.909.123.247 12.013 25.679 17.886 64.888 5.3 35.41 6.514 89.31-17.123 148.05H473.94a290.181 290.181 0 0018.04-77.383c2.166-23.681 1.402-47.925-2.272-71.739-6.276-40.648-18.759-66.32-19.282-67.389-1.647-3.33-5.714-4.75-9.091-3.133-3.376 1.625-4.775 5.619-3.129 8.949.115.244 12.089 24.796 18.061 63.44 5.521 35.741 6.768 90.899-18.624 150.737-.876 2.068-.65 4.755.614 6.623 1.261 1.864 3.384 3.307 5.655 3.307h103.645c3.994 0 8.698-11.481 8.698-11.481 11.696-27.625 18.977-56.51 21.641-85.687 2.144-23.399 1.331-47.167-2.411-70.481z"/></svg>