<svg width="43" height="40" fill="none" xmlns="http://www.w3.org/2000/svg"><path d="M30.48 0H11.617C5.211 0 0 4.952 0 11.039V28.96C0 35.048 5.211 40 11.617 40H30.48c6.406 0 11.618-4.952 11.618-11.039V11.04C42.098 4.952 36.886 0 30.48 0zm7.883 28.961c0 4.13-3.536 7.49-7.883 7.49H11.617c-4.346 0-7.882-3.36-7.882-7.49V11.04c0-4.13 3.536-7.49 7.882-7.49H30.48c4.347 0 7.883 3.36 7.883 7.49v17.92z" fill="#fff"/><path d="M21.049 9.694c-5.982 0-10.848 4.624-10.848 10.307 0 5.683 4.866 10.306 10.848 10.306 5.981 0 10.848-4.623 10.848-10.306 0-5.683-4.867-10.307-10.848-10.307zm0 17.064c-3.922 0-7.113-3.031-7.113-6.757 0-3.727 3.191-6.758 7.113-6.758 3.922 0 7.112 3.031 7.112 6.758 0 3.726-3.19 6.757-7.112 6.757zM32.351 6.685c-.72 0-1.427.277-1.935.762a2.55 2.55 0 00-.804 1.84c0 .684.294 1.356.804 1.841a2.841 2.841 0 003.872 0 2.56 2.56 0 00.802-1.84 2.55 2.55 0 00-.802-1.841 2.826 2.826 0 00-1.937-.762z" fill="#fff"/></svg>