<svg width="337" height="22" fill="none" xmlns="http://www.w3.org/2000/svg"><path d="M9.296 4.808c-2.976 0-4.896 1.824-5.544 3.696V.296H.632V17h3.12V9.968C4.28 8.648 5.936 7.52 7.976 7.52c2.424 0 3.36 1.008 3.36 2.952V17h3.12V9.392c0-3.096-2.232-4.584-5.16-4.584zM28.14 13.04c-.384 1.104-1.8 1.848-3.792 1.848-2.688 0-4.296-1.416-4.512-3.264h11.376c.192-4.632-2.208-6.816-6.864-6.816-4.632 0-7.656 2.352-7.656 6.264 0 3.96 3.168 6.216 7.728 6.216 4.056 0 6.312-1.776 6.72-4.248h-3zm-3.96-5.832c2.352 0 3.744 1.008 3.936 2.616H19.98c.408-1.488 1.896-2.616 4.2-2.616zM33.774.296V17h3.12V.296h-3.12zm6.515 0V17h3.12V.296h-3.12zm13.308 16.992c4.488 0 7.536-2.16 7.536-6.216 0-4.032-3.048-6.264-7.536-6.264-4.512 0-7.608 2.232-7.608 6.264 0 4.056 3.096 6.216 7.608 6.216zm0-2.4c-2.544 0-4.464-1.344-4.464-3.816 0-2.472 1.944-3.864 4.464-3.864 2.52 0 4.368 1.416 4.368 3.864 0 2.472-1.896 3.816-4.368 3.816zM79.975 1.232c-.864-.456-2.4-.888-3.456-.888-1.032 0-3.744.48-5.064.864-1.776.576-4.656 2.712-5.328 4.104-1.584 3.336-2.256 5.904-2.256 9.456 0 1.56 1.152 3.36 2.28 4.752.528.648 2.568 1.32 3.528 1.32 1.44 0 2.16-1.008 3.36-2.064.72-.624 2.064-2.472 2.184-2.688l-1.368-1.008c-.912 1.152-1.32 1.728-1.896 2.28-1.224 1.176-1.776 1.824-3.024 1.296-1.176-.456-1.44-.384-1.296-.216-.768-.936-2.04-1.32-2.04-3.744 0-3.144.432-5.112 2.112-8.568.432-.912 2.76-2.496 4.392-3 1.032-.312 3.624-.72 4.416-.72.624 0 2.112.288 2.52.504.528.288.768 1.152.768 2.064 0 1.152-.408 2.4-.912 4.128l-1.752 3.144c.072-1.224.288-2.424.288-3.744l.216-.384c.744-2.784-1.08-3.816-2.76-2.304-.24.216-.528.576-.864 1.008-.864-.384-1.92-.864-2.28-1.008-.264-.096-1.32-.312-1.536-.312-.072 0-.12.048-.12.168 0 1.008-.048.912-.408 1.992-.48 1.488-.984 2.856-1.296 4.368-.192.936-.36 3.648-.096 3.408 1.224-1.2 2.784-2.184 3.96-3.432.792-.888 1.464-1.896 2.184-2.88.36.144.672.24.816.24V8.096c.288-.336.576-.672.912-.96.144-.096-.384 1.296-.384 1.368 0 1.512-.096 2.904-.096 4.44 0 .672.336 1.2 1.128 1.512.144.048.288.168.432.168.192 0 .264-.216.36-.312.192-.216.48-.36.72-.528.6-.48 1.968-3.648 2.136-4.2.432-1.488 1.032-3.096 1.032-4.68 0-1.344-.696-3.264-1.512-3.672zm-9.144 10.152l-1.08 1.032c.48-1.176.96-2.544 1.56-4.224.048-.096.072-.216.12-.336.408.168.936.384 1.464.624-.744 1.128-1.512 2.28-2.064 2.904zm21.301-8.568h1.728V.296h-2.472c-3 0-4.608 1.272-4.608 4.152v.864h-2.688v2.352h2.688V17h3.12V7.664h3.792V5.312H89.9v-.504c0-1.632.792-2.04 2.232-1.992zm3.751-2.52V17h3.12V.296h-3.12zm13.308 16.992c4.488 0 7.536-2.16 7.536-6.216 0-4.032-3.048-6.264-7.536-6.264-4.512 0-7.608 2.232-7.608 6.264 0 4.056 3.096 6.216 7.608 6.216zm0-2.4c-2.544 0-4.464-1.344-4.464-3.816 0-2.472 1.944-3.864 4.464-3.864 2.52 0 4.368 1.416 4.368 3.864 0 2.472-1.896 3.816-4.368 3.816zm27.853-9.792l-3.384 8.424-2.88-8.424h-3.6l-3 8.424-3.264-8.424h-3.408l5.112 11.928h2.928l3.408-8.328 3.312 8.328h2.952l5.232-11.928h-3.408zm24.296-.288c-2.712 0-4.68 1.608-5.448 3.384-.576-2.304-2.52-3.384-4.968-3.384-2.976 0-4.896 1.776-5.544 3.72V5.096h-3.12V17h3.12V9.92c.552-1.344 2.28-2.592 4.44-2.592 2.208 0 3.144.936 3.144 2.952V17h3.12V9.728c0-.12 0-.24-.024-.336.744-1.128 2.304-2.064 4.176-2.064 2.184 0 3.12.936 3.12 2.952V17h3.12V9.728c0-3.384-2.208-4.92-5.136-4.92zm19.343.288v3.528c-.648-2.256-2.328-3.816-5.4-3.816-3.744 0-6.552 2.496-6.552 6.264 0 3.72 2.808 6.216 6.384 6.216 3.168 0 4.92-1.944 5.568-4.104v.744c0 1.44.216 3.072.216 3.072h2.904V5.096h-3.12zm-4.56 9.768c-2.544 0-4.2-1.512-4.2-3.792 0-2.304 1.512-3.84 4.2-3.84 2.784 0 4.56 1.392 4.56 3.84 0 2.28-1.752 3.792-4.56 3.792zm10.025-1.824c-.169 1.128 1.104 4.248 6.144 4.248 3.408 0 5.496-1.272 5.496-3.576 0-2.496-2.304-3.024-4.8-3.552-2.184-.384-3.312-.6-3.312-1.584 0-.84.84-1.368 2.376-1.368 1.584 0 2.304.528 2.568 1.68h2.76c-.024-2.376-1.776-4.08-5.304-4.08-3.168 0-5.592 1.32-5.592 3.6 0 2.4 2.472 3.12 5.16 3.552 2.016.312 2.952.552 2.952 1.56 0 .816-.504 1.368-2.304 1.368-1.824 0-2.928-.768-3.264-1.848h-2.88zm13.546 0c-.168 1.128 1.104 4.248 6.144 4.248 3.408 0 5.496-1.272 5.496-3.576 0-2.496-2.304-3.024-4.8-3.552-2.184-.384-3.312-.6-3.312-1.584 0-.84.84-1.368 2.376-1.368 1.584 0 2.304.528 2.568 1.68h2.76c-.024-2.376-1.776-4.08-5.304-4.08-3.168 0-5.592 1.32-5.592 3.6 0 2.4 2.472 3.12 5.16 3.552 2.016.312 2.952.552 2.952 1.56 0 .816-.504 1.368-2.304 1.368-1.824 0-2.928-.768-3.264-1.848h-2.88zm25.403-7.944v3.528c-.648-2.256-2.328-3.816-5.4-3.816-3.744 0-6.552 2.496-6.552 6.264 0 3.72 2.808 6.216 6.384 6.216 3.168 0 4.92-1.944 5.568-4.104v.744c0 1.44.216 3.072.216 3.072h2.904V5.096h-3.12zm-4.56 9.768c-2.544 0-4.2-1.512-4.2-3.792 0-2.304 1.512-3.84 4.2-3.84 2.784 0 4.56 1.392 4.56 3.84 0 2.28-1.752 3.792-4.56 3.792zm18.593-9.768a7.782 7.782 0 00-2.136-.288c-4.008 0-6.528 2.064-6.528 5.256 0 2.52 1.536 4.2 4.008 4.824-2.064.024-3.624.576-3.624 2.232 0 1.296.888 2.256 3.768 2.256h3.744c1.632 0 2.64.504 2.64 1.992v.552h3.12v-1.104c0-2.88-1.896-3.792-5.088-3.792L235.122 17c-.744 0-1.128-.264-1.128-.768 0-.792.96-.984 3-1.056 3.984 0 6.456-1.824 6.456-4.968 0-1.56-1.032-2.688-2.304-3.48 1.2.408 2.616.768 3.96.744V5.096h-5.976zm-2.136 7.848c-2.112 0-3.504-1.056-3.504-2.856 0-1.8 1.416-2.88 3.504-2.88 2.064 0 3.432 1.104 3.432 2.88 0 1.8-1.392 2.856-3.432 2.856zm20.81.096c-.384 1.104-1.8 1.848-3.792 1.848-2.688 0-4.296-1.416-4.512-3.264h11.376c.192-4.632-2.208-6.816-6.864-6.816-4.632 0-7.656 2.352-7.656 6.264 0 3.96 3.168 6.216 7.728 6.216 4.056 0 6.312-1.776 6.72-4.248h-3zm-3.96-5.832c2.352 0 3.744 1.008 3.936 2.616h-8.136c.408-1.488 1.896-2.616 4.2-2.616zm12.743 7.056h-3.624V17h3.624v-2.736zm13.53-1.224c-.384 1.104-1.8 1.848-3.792 1.848-2.688 0-4.296-1.416-4.512-3.264h11.376c.192-4.632-2.208-6.816-6.864-6.816-4.632 0-7.656 2.352-7.656 6.264 0 3.96 3.168 6.216 7.728 6.216 4.056 0 6.312-1.776 6.72-4.248h-3zm-3.96-5.832c2.352 0 3.744 1.008 3.936 2.616h-8.136c.408-1.488 1.896-2.616 4.2-2.616zm20.729-2.112v3.528c-.648-2.256-2.328-3.816-5.4-3.816-3.744 0-6.552 2.496-6.552 6.264 0 3.72 2.808 6.216 6.384 6.216 3.168 0 4.92-1.944 5.568-4.104v.744c0 1.44.216 3.072.216 3.072h2.904V5.096h-3.12zm-4.56 9.768c-2.544 0-4.2-1.512-4.2-3.792 0-2.304 1.512-3.84 4.2-3.84 2.784 0 4.56 1.392 4.56 3.84 0 2.28-1.752 3.792-4.56 3.792zm13.601-6.192V5.096h-3.12V17h3.12v-6.504c.432-.84 1.704-2.832 4.584-2.832V4.808c-2.808 0-4.128 2.4-4.584 3.864zm15.007-3.576h-3.072V1.808h-3.12v3.288h-3.048v2.4h3.048V17h3.12V7.496h3.072v-2.4zm10.862-.288c-2.976 0-4.896 1.824-5.544 3.696V.296h-3.12V17h3.12V9.968c.528-1.32 2.184-2.448 4.224-2.448 2.424 0 3.36 1.008 3.36 2.952V17h3.12V9.392c0-3.096-2.232-4.584-5.16-4.584z" fill="#07BEBB"/></svg>