<svg width="499" height="700" fill="none" xmlns="http://www.w3.org/2000/svg"><path d="M29.068 348.969c49.023 145.642 20.426 299.375 0 358.037h478.634V-3H29.068c-20.426 56.639-49.023 206.326 0 351.969z" fill="#1FD4B4" fill-opacity=".26" stroke="#fff" stroke-width="4"/><path d="M51.319 348.969c49.023 145.642 20.426 299.375 0 358.037h478.634V-3H51.319c-20.426 56.639-49.023 206.326 0 351.969z" fill="#1FD4B4" fill-opacity=".26" stroke="#fff" stroke-width="4"/><path d="M73.57 348.969c49.023 145.642 20.426 299.375 0 358.037h478.634V-3H73.57c-20.426 56.639-49.023 206.326 0 351.969z" fill="#1FD4B4" fill-opacity=".26" stroke="#fff" stroke-width="4"/><path d="M95.82 348.969c49.023 145.642 20.427 299.375 0 358.037h478.635V-3H95.821c-20.427 56.639-49.023 206.326 0 351.969z" fill="#1FD4B4" fill-opacity=".26" stroke="#fff" stroke-width="4"/><path d="M118.072 348.969c49.022 145.642 20.426 299.375 0 358.037h478.634V-3H118.072c-20.427 56.639-49.023 206.326 0 351.969z" fill="#1FD4B4" fill-opacity=".26" stroke="#fff" stroke-width="4"/></svg>