<svg width="89" height="159" viewBox="0 0 89 159" fill="none" xmlns="http://www.w3.org/2000/svg">
<path d="M27.6008 82.2296C24.8631 82.2296 22.6345 80.0299 22.6345 77.3292C22.6345 74.6264 24.8625 72.431 27.6008 72.431C30.3402 72.431 32.5688 74.6264 32.5688 77.3292C32.5683 80.0294 30.3402 82.2296 27.6008 82.2296ZM27.6008 65.1211C20.7777 65.1211 15.2264 70.596 15.2264 77.3292C15.2264 84.0624 20.7777 89.5379 27.6008 89.5379C34.4256 89.5379 39.9763 84.0624 39.9763 77.3292C39.9763 70.596 34.425 65.1211 27.6008 65.1211Z" stroke="white" stroke-width="4" stroke-miterlimit="10"/>
<path d="M9.4773 28.1107C9.83001 28.0595 9.45222 27.5879 9.59287 27.5378C28.2011 20.5451 46.6675 21.54 58.6914 23.0757C72.3856 24.8191 81.6319 28.5349 81.8391 28.6183C83.7253 29.3989 85.9168 28.5212 86.7089 26.6628C87.5005 24.8 86.6233 22.6598 84.736 21.8797C84.331 21.7134 74.678 17.7643 59.9785 15.8579C47.6374 14.2606 29.2947 13.8959 10.1784 20.4192L9.40588 20.7463L9.36118 19.7732L9.40752 15.3427C28.1079 7.82293 46.1491 8.64338 58.3665 9.91958C72.2613 11.3697 81.8026 14.9012 81.8958 14.935C83.8071 15.6622 85.9904 14.7229 86.7269 12.8405C87.464 10.9559 86.5345 8.84236 84.6254 8.11676C84.2132 7.95976 74.3563 4.25109 59.5587 2.6756C45.8863 1.22168 25.073 1.4054 4.36214 10.552C3.0287 11.1424 2 12.4464 2 13.8872V38.4932V38.5308V42.7889C2 43.665 2.49554 44.5111 3.07504 45.1745C3.64527 45.8287 17.4207 61.1415 43.3705 61.1415C45.4175 61.1415 47.1195 59.5049 47.1195 57.4857C47.1195 55.467 45.4829 53.8321 43.437 53.8321C34.0446 53.8321 25.2142 51.5833 17.5199 47.1507C13.549 44.86 10.8206 42.5436 9.40752 41.3094V40.9965C28.4606 33.8708 46.4397 34.3685 58.5437 36.1119C72.312 38.0936 81.6303 42.0743 81.723 42.1157C82.2125 42.3283 82.7664 42.433 83.2668 42.433C84.6875 42.433 86.064 41.6223 86.6762 40.2611C87.5081 38.4146 86.6784 36.2564 84.8096 35.4359C84.4057 35.2599 74.5717 31.0649 59.8629 28.9154C47.3822 27.088 28.8138 26.4982 9.40807 33.2112L9.4773 30.8747V28.1107V28.1107Z" stroke="white" stroke-width="4" stroke-miterlimit="10" stroke-linejoin="round"/>
<path d="M5.77574 65.2339C3.7276 65.2339 2.07034 66.8682 2.07034 68.888V153.122C2.07034 155.138 3.7276 156.775 5.77574 156.775C7.8206 156.775 9.47841 155.138 9.47841 153.122V68.888C9.47786 66.8682 7.8206 65.2339 5.77574 65.2339Z" stroke="white" stroke-width="4" stroke-miterlimit="10"/>
</svg>
