<?xml version="1.0" encoding="utf-8"?>
<!-- Generator: Adobe Illustrator 15.0.0, SVG Export Plug-In  -->
<!DOCTYPE svg PUBLIC "-//W3C//DTD SVG 1.1//EN" "http://www.w3.org/Graphics/SVG/1.1/DTD/svg11.dtd" [
	<!ENTITY ns_flows "http://ns.adobe.com/Flows/1.0/">
]>
<svg version="1.1"
	 xmlns="http://www.w3.org/2000/svg" xmlns:xlink="http://www.w3.org/1999/xlink" xmlns:a="http://ns.adobe.com/AdobeSVGViewerExtensions/3.0/"
	 x="0px" y="0px" width="672px" height="432px" viewBox="-44.56 -25.659 672 432"
	 overflow="visible" enable-background="new -44.56 -25.659 672 432" xml:space="preserve">
<defs>
</defs>
<g>
	<defs>
		<rect id="SVGID_1_" width="602.785" height="291.682"/>
	</defs>
	<clipPath id="SVGID_2_">
		<use xlink:href="#SVGID_1_"  overflow="visible"/>
	</clipPath>
	<path clip-path="url(#SVGID_2_)" fill="#1FD3B4" d="M50.683,150.894c-5.022,0-9.11-4.035-9.11-8.989
		c0-4.958,4.087-8.985,9.11-8.985c5.025,0,9.113,4.027,9.113,8.985C59.795,146.858,55.708,150.894,50.683,150.894 M50.683,119.511
		c-12.516,0-22.699,10.043-22.699,22.394s10.183,22.395,22.699,22.395c12.519,0,22.701-10.044,22.701-22.395
		S63.201,119.511,50.683,119.511"/>
	<path clip-path="url(#SVGID_2_)" fill="none" stroke="#FFFFFF" stroke-width="4" stroke-miterlimit="10" d="M50.683,150.894
		c-5.022,0-9.11-4.035-9.11-8.989c0-4.958,4.087-8.985,9.11-8.985c5.025,0,9.113,4.027,9.113,8.985
		C59.795,146.858,55.708,150.894,50.683,150.894z M50.683,119.511c-12.516,0-22.699,10.043-22.699,22.394
		s10.183,22.395,22.699,22.395c12.519,0,22.701-10.044,22.701-22.395S63.201,119.511,50.683,119.511z"/>
	<path clip-path="url(#SVGID_2_)" fill="#1FD3B4" d="M17.438,51.621c0.647-0.094-0.046-0.959,0.212-1.051
		c34.134-12.827,68.008-11.002,90.064-8.185c25.12,3.198,42.081,10.014,42.461,10.167c3.46,1.432,7.48-0.178,8.933-3.587
		c1.452-3.417-0.157-7.343-3.619-8.774c-0.743-0.305-18.45-7.549-45.414-11.046c-22.638-2.93-56.285-3.599-91.351,8.367l-1.417,0.6
		l-0.082-1.785l0.085-8.127c34.303-13.794,67.397-12.289,89.808-9.948c25.488,2.66,42.99,9.138,43.161,9.2
		c3.506,1.334,7.511-0.389,8.862-3.842c1.352-3.457-0.353-7.334-3.855-8.665c-0.756-0.288-18.837-7.091-45.981-9.981
		c-25.08-2.667-63.259-2.33-101.25,14.448c-2.446,1.083-4.333,3.475-4.333,6.118v45.136v0.069v7.811
		c0,1.607,0.909,3.159,1.972,4.376c1.046,1.2,26.315,29.289,73.916,29.289c3.755,0,6.877-3.002,6.877-6.706
		c0-3.703-3.002-6.702-6.755-6.702c-17.229,0-33.427-4.125-47.541-12.256c-7.284-4.202-12.289-8.451-14.881-10.715v-0.574
		c34.95-13.071,67.93-12.158,90.133-8.96c25.256,3.635,42.349,10.937,42.519,11.013c0.898,0.39,1.914,0.582,2.832,0.582
		c2.606,0,5.131-1.487,6.254-3.984c1.526-3.387,0.004-7.346-3.424-8.851c-0.741-0.323-18.78-8.018-45.761-11.961
		c-22.894-3.352-56.955-4.434-92.552,7.88l0.127-4.286V51.621z"/>
	
		<path clip-path="url(#SVGID_2_)" fill="none" stroke="#FFFFFF" stroke-width="4" stroke-linejoin="round" stroke-miterlimit="10" d="
		M17.438,51.621c0.647-0.094-0.046-0.959,0.212-1.051c34.134-12.827,68.008-11.002,90.064-8.185
		c25.12,3.198,42.081,10.014,42.461,10.167c3.46,1.432,7.48-0.178,8.933-3.587c1.452-3.417-0.157-7.343-3.619-8.774
		c-0.743-0.305-18.45-7.549-45.414-11.046c-22.638-2.93-56.285-3.599-91.351,8.367l-1.417,0.6l-0.082-1.785l0.085-8.127
		c34.303-13.794,67.397-12.289,89.808-9.948c25.488,2.66,42.99,9.138,43.161,9.2c3.506,1.334,7.511-0.389,8.862-3.842
		c1.352-3.457-0.353-7.334-3.855-8.665c-0.756-0.288-18.837-7.091-45.981-9.981c-25.08-2.667-63.259-2.33-101.25,14.448
		c-2.446,1.083-4.333,3.475-4.333,6.118v45.136v0.069v7.811c0,1.607,0.909,3.159,1.972,4.376c1.046,1.2,26.315,29.289,73.916,29.289
		c3.755,0,6.877-3.002,6.877-6.706c0-3.703-3.002-6.702-6.755-6.702c-17.229,0-33.427-4.125-47.541-12.256
		c-7.284-4.202-12.289-8.451-14.881-10.715v-0.574c34.95-13.071,67.93-12.158,90.133-8.96c25.256,3.635,42.349,10.937,42.519,11.013
		c0.898,0.39,1.914,0.582,2.832,0.582c2.606,0,5.131-1.487,6.254-3.984c1.526-3.387,0.004-7.346-3.424-8.851
		c-0.741-0.323-18.78-8.018-45.761-11.961c-22.894-3.352-56.955-4.434-92.552,7.88l0.127-4.286V51.621z"/>
	<path clip-path="url(#SVGID_2_)" fill="#1FD3B4" d="M10.648,119.718c-3.757,0-6.797,2.998-6.797,6.703v154.514
		c0,3.699,3.04,6.701,6.797,6.701c3.751,0,6.792-3.002,6.792-6.701V126.421C17.439,122.716,14.399,119.718,10.648,119.718"/>
	<path clip-path="url(#SVGID_2_)" fill="none" stroke="#FFFFFF" stroke-width="4" stroke-miterlimit="10" d="M10.648,119.718
		c-3.757,0-6.797,2.998-6.797,6.703v154.514c0,3.699,3.04,6.701,6.797,6.701c3.751,0,6.792-3.002,6.792-6.701V126.421
		C17.439,122.716,14.399,119.718,10.648,119.718z"/>
	<path clip-path="url(#SVGID_2_)" fill="#1FD3B4" d="M200.277,9.897c-3.751,0-6.797,3.002-6.797,6.703v264.335
		c0,3.699,3.046,6.705,6.797,6.705s6.797-3.006,6.797-6.705V16.6C207.074,12.899,204.028,9.897,200.277,9.897"/>
	<path clip-path="url(#SVGID_2_)" fill="none" stroke="#FFFFFF" stroke-width="4" stroke-miterlimit="10" d="M200.277,9.897
		c-3.751,0-6.797,3.002-6.797,6.703v264.335c0,3.699,3.046,6.705,6.797,6.705s6.797-3.006,6.797-6.705V16.6
		C207.074,12.899,204.028,9.897,200.277,9.897z"/>
	<path clip-path="url(#SVGID_2_)" fill="#1FD3B4" d="M343.237,274.162c-45.306,0-82.16-36.358-82.16-81.052
		c0-44.692,36.854-81.047,82.16-81.047c45.303,0,82.146,36.354,82.146,81.047C425.383,237.804,388.54,274.162,343.237,274.162
		 M343.237,98.651c-52.796,0-95.752,42.374-95.752,94.459c0,52.083,42.956,94.457,95.752,94.457
		c52.798,0,95.742-42.374,95.742-94.457C438.979,141.024,396.035,98.651,343.237,98.651"/>
	<path clip-path="url(#SVGID_2_)" fill="none" stroke="#FFFFFF" stroke-width="4" stroke-miterlimit="10" d="M343.237,274.162
		c-45.306,0-82.16-36.358-82.16-81.052c0-44.692,36.854-81.047,82.16-81.047c45.303,0,82.146,36.354,82.146,81.047
		C425.383,237.804,388.54,274.162,343.237,274.162z M343.237,98.651c-52.796,0-95.752,42.374-95.752,94.459
		c0,52.083,42.956,94.457,95.752,94.457c52.798,0,95.742-42.374,95.742-94.457C438.979,141.024,396.035,98.651,343.237,98.651z"/>
	<path clip-path="url(#SVGID_2_)" fill="#1FD3B4" d="M595.485,120.31c-6.386-39.807-18.999-64.567-19.528-65.603
		c-1.709-3.297-5.802-4.612-9.139-2.933c-3.344,1.679-4.678,5.717-2.977,9.014c0.12,0.237,12.173,23.881,18.228,61.62
		c5.591,34.923,6.986,92.323-18.396,152.147c-0.055,0.128-37.856-0.008-37.856-0.008c9.567-24.9,15.652-51.202,18.102-77.718
		c2.203-23.852,1.49-48.339-2.122-72.463c-6.165-41.159-18.516-67.34-19.039-68.431c-1.613-3.348-5.662-4.816-9.051-3.235
		c-3.395,1.584-4.841,5.561-3.241,8.909c0.123,0.247,12.013,25.679,17.886,64.888c5.3,35.41,6.514,89.31-17.123,148.05h-37.289
		c9.563-24.9,15.629-51.067,18.04-77.383c2.166-23.681,1.402-47.925-2.272-71.739c-6.276-40.648-18.759-66.32-19.282-67.389
		c-1.647-3.33-5.714-4.75-9.091-3.133c-3.376,1.625-4.775,5.619-3.129,8.949c0.115,0.244,12.089,24.796,18.061,63.44
		c5.521,35.741,6.768,90.899-18.624,150.737c-0.876,2.068-0.65,4.755,0.614,6.623c1.261,1.864,3.384,3.307,5.655,3.307h103.645
		c3.994,0,8.698-11.481,8.698-11.481c11.696-27.625,18.977-56.51,21.641-85.687C600.04,167.392,599.227,143.624,595.485,120.31"/>
	<path clip-path="url(#SVGID_2_)" fill="none" stroke="#FFFFFF" stroke-width="4" stroke-miterlimit="10" d="M595.485,120.31
		c-6.386-39.807-18.999-64.567-19.528-65.603c-1.709-3.297-5.802-4.612-9.139-2.933c-3.344,1.679-4.678,5.717-2.977,9.014
		c0.12,0.237,12.173,23.881,18.228,61.62c5.591,34.923,6.986,92.323-18.396,152.147c-0.055,0.128-37.856-0.008-37.856-0.008
		c9.567-24.9,15.652-51.202,18.102-77.718c2.203-23.852,1.49-48.339-2.122-72.463c-6.165-41.159-18.516-67.34-19.039-68.431
		c-1.613-3.348-5.662-4.816-9.051-3.235c-3.395,1.584-4.841,5.561-3.241,8.909c0.123,0.247,12.013,25.679,17.886,64.888
		c5.3,35.41,6.514,89.31-17.123,148.05h-37.289c9.563-24.9,15.629-51.067,18.04-77.383c2.166-23.681,1.402-47.925-2.272-71.739
		c-6.276-40.648-18.759-66.32-19.282-67.389c-1.647-3.33-5.714-4.75-9.091-3.133c-3.376,1.625-4.775,5.619-3.129,8.949
		c0.115,0.244,12.089,24.796,18.061,63.44c5.521,35.741,6.768,90.899-18.624,150.737c-0.876,2.068-0.65,4.755,0.614,6.623
		c1.261,1.864,3.384,3.307,5.655,3.307h103.645c3.994,0,8.698-11.481,8.698-11.481c11.696-27.625,18.977-56.51,21.641-85.687
		C600.04,167.392,599.227,143.624,595.485,120.31z"/>
</g>
</svg>
