<svg width="337" height="22" viewBox="0 0 337 22" fill="none" xmlns="http://www.w3.org/2000/svg">
<path d="M9.296 4.808C6.32 4.808 4.4 6.632 3.752 8.504V0.295999H0.632V17H3.752V9.968C4.28 8.648 5.936 7.52 7.976 7.52C10.4 7.52 11.336 8.528 11.336 10.472V17H14.456V9.392C14.456 6.296 12.224 4.808 9.296 4.808ZM28.1401 13.04C27.7561 14.144 26.3401 14.888 24.3481 14.888C21.6601 14.888 20.0521 13.472 19.8361 11.624H31.2121C31.4041 6.992 29.0041 4.808 24.3481 4.808C19.7161 4.808 16.6921 7.16 16.6921 11.072C16.6921 15.032 19.8601 17.288 24.4201 17.288C28.4761 17.288 30.7321 15.512 31.1401 13.04H28.1401ZM24.1801 7.208C26.5321 7.208 27.9241 8.216 28.1161 9.824H19.9801C20.3881 8.336 21.8761 7.208 24.1801 7.208ZM33.7738 0.295999V17H36.8938V0.295999H33.7738ZM40.2894 0.295999V17H43.4094V0.295999H40.2894ZM53.597 17.288C58.085 17.288 61.133 15.128 61.133 11.072C61.133 7.04 58.085 4.808 53.597 4.808C49.085 4.808 45.989 7.04 45.989 11.072C45.989 15.128 49.085 17.288 53.597 17.288ZM53.597 14.888C51.053 14.888 49.133 13.544 49.133 11.072C49.133 8.6 51.077 7.208 53.597 7.208C56.117 7.208 57.965 8.624 57.965 11.072C57.965 13.544 56.069 14.888 53.597 14.888ZM79.9754 1.232C79.1114 0.775999 77.5754 0.344 76.5194 0.344C75.4874 0.344 72.7754 0.823999 71.4554 1.208C69.6794 1.784 66.7994 3.92 66.1274 5.312C64.5434 8.648 63.8714 11.216 63.8714 14.768C63.8714 16.328 65.0234 18.128 66.1514 19.52C66.6794 20.168 68.7194 20.84 69.6794 20.84C71.1194 20.84 71.8394 19.832 73.0394 18.776C73.7594 18.152 75.1034 16.304 75.2234 16.088L73.8554 15.08C72.9434 16.232 72.5354 16.808 71.9594 17.36C70.7354 18.536 70.1834 19.184 68.9354 18.656C67.7594 18.2 67.4954 18.272 67.6394 18.44C66.8714 17.504 65.5994 17.12 65.5994 14.696C65.5994 11.552 66.0314 9.584 67.7114 6.128C68.1434 5.216 70.4714 3.632 72.1034 3.128C73.1354 2.816 75.7274 2.408 76.5194 2.408C77.1434 2.408 78.6314 2.696 79.0394 2.912C79.5674 3.2 79.8074 4.064 79.8074 4.976C79.8074 6.128 79.3994 7.376 78.8954 9.104L77.1434 12.248C77.2154 11.024 77.4314 9.824 77.4314 8.504L77.6474 8.12C78.3914 5.336 76.5674 4.304 74.8874 5.816C74.6474 6.032 74.3594 6.392 74.0234 6.824C73.1594 6.44 72.1034 5.96 71.7434 5.816C71.4794 5.72 70.4234 5.504 70.2074 5.504C70.1354 5.504 70.0874 5.552 70.0874 5.672C70.0874 6.68 70.0394 6.584 69.6794 7.664C69.1994 9.152 68.6954 10.52 68.3834 12.032C68.1914 12.968 68.0234 15.68 68.2874 15.44C69.5114 14.24 71.0714 13.256 72.2474 12.008C73.0394 11.12 73.7114 10.112 74.4314 9.128C74.7914 9.272 75.1034 9.368 75.2474 9.368V8.096C75.5354 7.76 75.8234 7.424 76.1594 7.136C76.3034 7.04 75.7754 8.432 75.7754 8.504C75.7754 10.016 75.6794 11.408 75.6794 12.944C75.6794 13.616 76.0154 14.144 76.8074 14.456C76.9514 14.504 77.0954 14.624 77.2394 14.624C77.4314 14.624 77.5034 14.408 77.5994 14.312C77.7914 14.096 78.0794 13.952 78.3194 13.784C78.9194 13.304 80.2874 10.136 80.4554 9.584C80.8874 8.096 81.4874 6.488 81.4874 4.904C81.4874 3.56 80.7914 1.64 79.9754 1.232ZM70.8314 11.384L69.7514 12.416C70.2314 11.24 70.7114 9.872 71.3114 8.192C71.3594 8.096 71.3834 7.976 71.4314 7.856C71.8394 8.024 72.3674 8.24 72.8954 8.48C72.1514 9.608 71.3834 10.76 70.8314 11.384ZM92.1322 2.816H93.8602V0.295999H91.3882C88.3882 0.295999 86.7802 1.568 86.7802 4.448V5.312H84.0922V7.664H86.7802V17H89.9002V7.664H93.6922V5.312H89.9002V4.808C89.9002 3.176 90.6922 2.768 92.1322 2.816ZM95.8831 0.295999V17H99.0031V0.295999H95.8831ZM109.191 17.288C113.679 17.288 116.727 15.128 116.727 11.072C116.727 7.04 113.679 4.808 109.191 4.808C104.679 4.808 101.583 7.04 101.583 11.072C101.583 15.128 104.679 17.288 109.191 17.288ZM109.191 14.888C106.647 14.888 104.727 13.544 104.727 11.072C104.727 8.6 106.671 7.208 109.191 7.208C111.711 7.208 113.559 8.624 113.559 11.072C113.559 13.544 111.663 14.888 109.191 14.888ZM137.044 5.096L133.66 13.52L130.78 5.096H127.18L124.18 13.52L120.916 5.096H117.508L122.62 17.024H125.548L128.956 8.696L132.268 17.024H135.22L140.452 5.096H137.044ZM161.34 4.808C158.628 4.808 156.66 6.416 155.892 8.192C155.316 5.888 153.372 4.808 150.924 4.808C147.948 4.808 146.028 6.584 145.38 8.528V5.096H142.26V17H145.38V9.92C145.932 8.576 147.66 7.328 149.82 7.328C152.028 7.328 152.964 8.264 152.964 10.28V17H156.084V9.728C156.084 9.608 156.084 9.488 156.06 9.392C156.804 8.264 158.364 7.328 160.236 7.328C162.42 7.328 163.356 8.264 163.356 10.28V17H166.476V9.728C166.476 6.344 164.268 4.808 161.34 4.808ZM180.683 5.096V8.624C180.035 6.368 178.355 4.808 175.283 4.808C171.539 4.808 168.731 7.304 168.731 11.072C168.731 14.792 171.539 17.288 175.115 17.288C178.283 17.288 180.035 15.344 180.683 13.184V13.928C180.683 15.368 180.899 17 180.899 17H183.803V5.096H180.683ZM176.123 14.864C173.579 14.864 171.923 13.352 171.923 11.072C171.923 8.768 173.435 7.232 176.123 7.232C178.907 7.232 180.683 8.624 180.683 11.072C180.683 13.352 178.931 14.864 176.123 14.864ZM186.148 13.04C185.979 14.168 187.252 17.288 192.292 17.288C195.7 17.288 197.788 16.016 197.788 13.712C197.788 11.216 195.484 10.688 192.988 10.16C190.804 9.776 189.676 9.56 189.676 8.576C189.676 7.736 190.516 7.208 192.052 7.208C193.636 7.208 194.356 7.736 194.62 8.888H197.38C197.356 6.512 195.604 4.808 192.076 4.808C188.908 4.808 186.484 6.128 186.484 8.408C186.484 10.808 188.956 11.528 191.644 11.96C193.66 12.272 194.596 12.512 194.596 13.52C194.596 14.336 194.092 14.888 192.292 14.888C190.468 14.888 189.364 14.12 189.028 13.04H186.148ZM199.694 13.04C199.526 14.168 200.798 17.288 205.838 17.288C209.246 17.288 211.334 16.016 211.334 13.712C211.334 11.216 209.03 10.688 206.534 10.16C204.35 9.776 203.222 9.56 203.222 8.576C203.222 7.736 204.062 7.208 205.598 7.208C207.182 7.208 207.902 7.736 208.166 8.888H210.926C210.902 6.512 209.15 4.808 205.622 4.808C202.454 4.808 200.03 6.128 200.03 8.408C200.03 10.808 202.502 11.528 205.19 11.96C207.206 12.272 208.142 12.512 208.142 13.52C208.142 14.336 207.638 14.888 205.838 14.888C204.014 14.888 202.91 14.12 202.574 13.04H199.694ZM225.097 5.096V8.624C224.449 6.368 222.769 4.808 219.697 4.808C215.953 4.808 213.145 7.304 213.145 11.072C213.145 14.792 215.953 17.288 219.529 17.288C222.697 17.288 224.449 15.344 225.097 13.184V13.928C225.097 15.368 225.313 17 225.313 17H228.217V5.096H225.097ZM220.537 14.864C217.993 14.864 216.337 13.352 216.337 11.072C216.337 8.768 217.849 7.232 220.537 7.232C223.321 7.232 225.097 8.624 225.097 11.072C225.097 13.352 223.345 14.864 220.537 14.864ZM239.13 5.096C238.458 4.904 237.738 4.808 236.994 4.808C232.986 4.808 230.466 6.872 230.466 10.064C230.466 12.584 232.002 14.264 234.474 14.888C232.41 14.912 230.85 15.464 230.85 17.12C230.85 18.416 231.738 19.376 234.618 19.376H238.362C239.994 19.376 241.002 19.88 241.002 21.368V21.92H244.122V20.816C244.122 17.936 242.226 17.024 239.034 17.024L235.122 17C234.378 17 233.994 16.736 233.994 16.232C233.994 15.44 234.954 15.248 236.994 15.176C240.978 15.176 243.45 13.352 243.45 10.208C243.45 8.648 242.418 7.52 241.146 6.728C242.346 7.136 243.762 7.496 245.106 7.472V5.096H239.13ZM236.994 12.944C234.882 12.944 233.49 11.888 233.49 10.088C233.49 8.288 234.906 7.208 236.994 7.208C239.058 7.208 240.426 8.312 240.426 10.088C240.426 11.888 239.034 12.944 236.994 12.944ZM257.804 13.04C257.42 14.144 256.004 14.888 254.012 14.888C251.324 14.888 249.716 13.472 249.5 11.624H260.876C261.068 6.992 258.668 4.808 254.012 4.808C249.38 4.808 246.356 7.16 246.356 11.072C246.356 15.032 249.524 17.288 254.084 17.288C258.14 17.288 260.396 15.512 260.804 13.04H257.804ZM253.844 7.208C256.196 7.208 257.588 8.216 257.78 9.824H249.644C250.052 8.336 251.54 7.208 253.844 7.208ZM266.587 14.264H262.963V17H266.587V14.264ZM280.117 13.04C279.733 14.144 278.317 14.888 276.325 14.888C273.637 14.888 272.029 13.472 271.813 11.624H283.189C283.381 6.992 280.981 4.808 276.325 4.808C271.693 4.808 268.669 7.16 268.669 11.072C268.669 15.032 271.837 17.288 276.397 17.288C280.453 17.288 282.709 15.512 283.117 13.04H280.117ZM276.157 7.208C278.509 7.208 279.901 8.216 280.093 9.824H271.957C272.365 8.336 273.853 7.208 276.157 7.208ZM296.886 5.096V8.624C296.238 6.368 294.558 4.808 291.486 4.808C287.742 4.808 284.934 7.304 284.934 11.072C284.934 14.792 287.742 17.288 291.318 17.288C294.486 17.288 296.238 15.344 296.886 13.184V13.928C296.886 15.368 297.102 17 297.102 17H300.006V5.096H296.886ZM292.326 14.864C289.782 14.864 288.126 13.352 288.126 11.072C288.126 8.768 289.638 7.232 292.326 7.232C295.11 7.232 296.886 8.624 296.886 11.072C296.886 13.352 295.134 14.864 292.326 14.864ZM305.927 8.672V5.096H302.807V17H305.927V10.496C306.359 9.656 307.631 7.664 310.511 7.664V4.808C307.703 4.808 306.383 7.208 305.927 8.672ZM320.934 5.096H317.862V1.808H314.742V5.096H311.694V7.496H314.742V17H317.862V7.496H320.934V5.096ZM331.796 4.808C328.82 4.808 326.9 6.632 326.252 8.504V0.295999H323.132V17H326.252V9.968C326.78 8.648 328.436 7.52 330.476 7.52C332.9 7.52 333.836 8.528 333.836 10.472V17H336.956V9.392C336.956 6.296 334.724 4.808 331.796 4.808Z" fill="#07BEBB"/>
</svg>
