<svg width="499" height="700" viewBox="0 0 499 700" fill="none" xmlns="http://www.w3.org/2000/svg">
<path d="M29.068 348.969C78.0907 494.611 49.4941 648.344 29.068 707.006H507.702V-3.00012H29.068C8.64185 53.6385 -19.9547 203.326 29.068 348.969Z" fill="#1FD4B4" fill-opacity="0.26" stroke="white" stroke-width="4"/>
<path d="M51.3188 348.969C100.342 494.611 71.745 648.344 51.3188 707.006H529.953V-3.00012H51.3188C30.8927 53.6385 2.29611 203.326 51.3188 348.969Z" fill="#1FD4B4" fill-opacity="0.26" stroke="white" stroke-width="4"/>
<path d="M73.5698 348.969C122.593 494.611 93.996 648.344 73.5698 707.006H552.204V-3.00012H73.5698C53.1437 53.6385 24.5471 203.326 73.5698 348.969Z" fill="#1FD4B4" fill-opacity="0.26" stroke="white" stroke-width="4"/>
<path d="M95.8207 348.969C144.843 494.611 116.247 648.344 95.8207 707.006H574.455V-3.00012H95.8207C75.3945 53.6385 46.7979 203.326 95.8207 348.969Z" fill="#1FD4B4" fill-opacity="0.26" stroke="white" stroke-width="4"/>
<path d="M118.072 348.969C167.094 494.611 138.498 648.344 118.072 707.006H596.706V-3.00012H118.072C97.6454 53.6385 69.0488 203.326 118.072 348.969Z" fill="#1FD4B4" fill-opacity="0.26" stroke="white" stroke-width="4"/>
</svg>
